<svg width="2356" height="212" viewBox="0 0 2356 212" fill="none" xmlns="http://www.w3.org/2000/svg">
<path fill-rule="evenodd" clip-rule="evenodd" d="M1103 68C1103 76.8682 1101.34 85.34 1098.32 93.108L1098.58 93.0947L1099.13 93.0701C1099.27 93.0643 1099.41 93.0588 1099.55 93.0537C1099.68 93.0491 1099.8 93.0447 1099.93 93.0406C1100.44 93.0247 1100.94 93.0134 1101.45 93.0068C1101.67 93.0039 1101.89 93.002 1102.11 93.0009L1102.5 93C1120.82 93 1137.68 99.1962 1151.03 109.582C1169.42 86.1084 1198.18 71 1230.5 71C1272.39 71 1308.29 96.369 1323.38 132.434C1338 124.502 1354.73 120 1372.5 120C1386.25 120 1399.37 122.694 1411.37 127.584C1429.38 69.3177 1483.52 27 1547.5 27C1602.09 27 1649.51 57.806 1673.44 103.04C1682.14 99.7663 1691.39 98 1701 98C1731.95 98 1759.29 116.336 1775.73 144.353C1787.89 139.003 1801.56 136 1816 136C1842.44 136 1866.27 146.06 1883.05 162.169C1895.01 122.161 1932.1 93 1976 93C1977.34 93 1978.66 93.027 1979.99 93.0804C1991.7 43.1647 2036.51 6 2090 6C2152.41 6 2203 56.5918 2203 119L2203 119.26C2203 119.511 2203 119.762 2203 120.013C2207.57 120.091 2212.05 120.525 2216.42 121.29C2230.91 103.996 2252.67 93 2277 93C2320.63 93 2356 128.37 2356 172C2356 186.596 2352.04 200.268 2345.14 212H0.133913C0.0449531 210.011 0 208.011 0 206C0 133.098 59.0986 74 132 74C182.196 74 225.849 102.018 248.17 143.269C263.552 128.838 284.244 120 307 120C337.689 120 364.624 136.075 379.844 160.264C391.688 147.783 408.435 140 427 140C438.388 140 449.091 142.929 458.399 148.074C463.699 79.2165 521.042 25 591 25C636.149 25 676.044 47.5815 700.086 82.1063C713.747 73.7922 729.811 69 747 69C771.907 69 794.45 79.061 810.745 95.3192C834.512 58.9891 875.465 35 922 35C940.35 35 957.833 38.7302 973.735 45.4763C982.824 18.9906 1007.49 0 1036.5 0C1073.23 0 1103 30.4446 1103 68Z" fill="#FFFFFF"/>
</svg>
